<svg xmlns="http://www.w3.org/2000/svg" width="1024" height="1024" viewBox="0 0 1024 1024" role="img" aria-labelledby="icon-title icon-desc">
  <title id="icon-title">Gem Cutter application icon</title>
  <desc id="icon-desc">The original Gem Cutter mark on a deep ink background.</desc>
  <rect width="1024" height="1024" rx="176" fill="#102A4E"/>
  <defs>
    <linearGradient id="icon-blue" gradientUnits="userSpaceOnUse" x1="180" y1="190" x2="720" y2="910"><stop offset="0" stop-color="#5DABFF"/><stop offset="1" stop-color="#1971D5"/></linearGradient>
    <linearGradient id="icon-teal" gradientUnits="userSpaceOnUse" x1="120" y1="906" x2="945" y2="113"><stop offset="0" stop-color="#55D6CB"/><stop offset="1" stop-color="#2BC4C3"/></linearGradient>
  </defs>
  <g fill="url(#icon-blue)">
    <path d="M79 398L239 187H407L297 398Z"/><path d="M594 187H708L752 226L672 317Z"/><path d="M782 398L854 318L917 398Z"/>
    <path d="M79 426H297L338 547L258 641Z"/><path d="M327 426H439L359 521Z"/><path d="M487 426H578L535 476Z"/>
    <path d="M343 743L389 686L456 879Z"/><path d="M409 661L469 585L540 659L618 575L498 912Z"/>
    <path d="M329 398L440 187H561L652 341L602 398Z"/><path d="M755 426H918L541 879L667 520Z"/>
  </g>
  <path fill="url(#icon-teal)" d="M120 906L463 442L535 517L790 223L739 177L945 113L909 327L853 279L540 618L468 543Z"/>
</svg>
